<!DOCTYPE svg PUBLIC "-//W3C//DTD SVG 1.1//EN" "http://www.w3.org/Graphics/SVG/1.1/DTD/svg11.dtd">
<!-- Uploaded to: SVG Repo, www.svgrepo.com, Transformed by: SVG Repo Mixer Tools -->
<svg width="800px" height="800px" viewBox="0 0 24 24" xmlns="http://www.w3.org/2000/svg" fill="#000000">
<g id="SVGRepo_bgCarrier" stroke-width="0"/>
<g id="SVGRepo_tracerCarrier" stroke-linecap="round" stroke-linejoin="round"/>
<g id="SVGRepo_iconCarrier"> <defs> <style>.cls-1{fill:none;stroke:#000000;stroke-linecap:square;stroke-miterlimit:10;stroke-width:2px;}</style> </defs> <g id="bill_alternatif" data-name="bill alternatif"> <path class="cls-1" d="M10,13.5h2.5A1.5,1.5,0,0,0,14,12h0a1.5,1.5,0,0,0-1.5-1.5h-1A1.5,1.5,0,0,1,10,9h0a1.5,1.5,0,0,1,1.5-1.5H14"/> <line class="cls-1" x1="12" y1="5.5" x2="12" y2="7.5"/> <line class="cls-1" x1="12" y1="13.5" x2="12" y2="15.5"/> <polygon class="cls-1" points="4 22.5 6.66 20.5 9.33 22.5 11.99 20.5 14.66 22.5 17.33 20.5 20 22.5 21 21.5 21 1.5 3 1.5 3 21.5 4 22.5"/> </g> </g>
</svg>